{
  "asset": {
    "version": "2.0",
    "generator": "THREE.GLTFExporter"
  },
  "scenes": [
    {
      "nodes": [
        0
      ]
    }
  ],
  "scene": 0,
  "nodes": [
    {
      "children": [
        14
      ],
      "matrix": [
        0.01,
        0,
        0,
        0,
        0,
        0.01,
        0,
        0,
        0,
        0,
        0.01,
        0,
        0,
        0,
        0,
        1
      ]
    },
    {
      "name": "body",
      "mesh": 0
    },
    {
      "matrix": [
        1,
        0,
        0,
        0,
        0,
        1,
        0,
        0,
        0,
        0,
        1,
        0,
        -0.25291913747787453,
        -0.24697169661521912,
        0,
        1
      ],
      "name": "top",
      "mesh": 1
    },
    {
      "matrix": [
        1,
        0,
        0,
        0,
        0,
        1,
        0,
        0,
        0,
        0,
        1,
        0,
        -0.25291913747787453,
        -0.24697169661521912,
        0,
        1
      ],
      "name": "bottom",
      "mesh": 2
    },
    {
      "matrix": [
        1,
        0,
        0,
        0,
        0,
        1,
        0,
        0,
        0,
        0,
        1,
        0,
        0.25291913747787453,
        0.24697169661521912,
        0,
        1
      ],
      "name": "beak",
      "children": [
        2,
        3
      ]
    },
    {
      "name": "wings",
      "mesh": 3
    },
    {
      "name": "eye",
      "mesh": 4
    },
    {
      "matrix": [
        193.49476931045467,
        0,
        0,
        0,
        0,
        193.49476931045467,
        0,
        0,
        0,
        0,
        193.49476931045467,
        0,
        0,
        0,
        0,
        1
      ],
      "name": "duck3",
      "children": [
        1,
        4,
        5,
        6
      ]
    },
    {
      "matrix": [
        1.7357958548632821,
        0,
        0,
        0,
        0,
        3.7899318190425944,
        1.1102230246251565e-16,
        0,
        0,
        -1.1102230246251565e-16,
        1.7692695228318256,
        0,
        -0.14675317467860793,
        5.750280021518222,
        -0.2399792665352436,
        0.9999999999999963
      ],
      "name": "hat_badge",
      "mesh": 6
    },
    {
      "matrix": [
        0.21726118093160918,
        -0.012318083279144137,
        0.23355556254789983,
        0,
        -0.012668057847967852,
        0.26972736216366555,
        0.0260100904970288,
        0,
        -0.2270265734743607,
        -0.030870609964675375,
        0.20955953340411498,
        0,
        -0.5677319566173221,
        -6.735563334145545,
        0.17287914201173732,
        0.9999999999999999
      ],
      "name": "hat flower",
      "mesh": 5,
      "children": [
        8
      ]
    },
    {
      "matrix": [
        0.5076791990176285,
        0.08473829101914351,
        -4.910766579015256e-18,
        0,
        -0.08441047750771244,
        0.5057152214708913,
        -0.04522978155588691,
        0,
        -0.007446425435403859,
        0.04461259786011365,
        0.5127114334013162,
        0,
        16.748321304565835,
        70.61170400424281,
        1.0186879257293016,
        1
      ],
      "name": "hat flower",
      "children": [
        9
      ]
    },
    {
      "matrix": [
        0.5883484054145521,
        0.39223227027636803,
        -0.7071067811865475,
        0,
        -0.554700196225229,
        0.8320502943378437,
        0,
        0,
        0.588348405414552,
        0.392232270276368,
        0.7071067811865476,
        0,
        0,
        0,
        0,
        1
      ],
      "name": "Directional Light",
      "extensions": {
        "KHR_lights_punctual": {
          "light": 0
        }
      }
    },
    {
      "matrix": [
        0.7972993903054089,
        2.937069179531626e-8,
        -0.6035840307849625,
        0,
        -0.10235420588621916,
        0.9855168801384924,
        -0.13520390341811112,
        0,
        0.5948422469495798,
        0.16957735391876944,
        0.7857520106763225,
        0,
        1164.1234710344966,
        373.96775464642485,
        1514.816581282394,
        1
      ],
      "camera": 0
    },
    {
      "matrix": [
        1,
        0,
        0,
        0,
        0,
        1,
        0,
        0,
        0,
        0,
        1,
        0,
        0,
        1,
        0,
        1
      ],
      "name": "Default Ambient Light"
    },
    {
      "name": "Scene 1",
      "children": [
        7,
        10,
        11,
        12,
        13
      ]
    }
  ],
  "bufferViews": [
    {
      "buffer": 0,
      "byteOffset": 0,
      "byteLength": 25200,
      "target": 34962,
      "byteStride": 12
    },
    {
      "buffer": 0,
      "byteOffset": 25200,
      "byteLength": 25200,
      "target": 34962,
      "byteStride": 12
    },
    {
      "buffer": 0,
      "byteOffset": 50400,
      "byteLength": 16800,
      "target": 34962,
      "byteStride": 8
    },
    {
      "buffer": 0,
      "byteOffset": 67200,
      "byteLength": 23040,
      "target": 34963
    },
    {
      "buffer": 0,
      "byteOffset": 90240,
      "byteLength": 1944,
      "target": 34962,
      "byteStride": 12
    },
    {
      "buffer": 0,
      "byteOffset": 92184,
      "byteLength": 1944,
      "target": 34962,
      "byteStride": 12
    },
    {
      "buffer": 0,
      "byteOffset": 94128,
      "byteLength": 1296,
      "target": 34962,
      "byteStride": 8
    },
    {
      "buffer": 0,
      "byteOffset": 95424,
      "byteLength": 1920,
      "target": 34963
    },
    {
      "buffer": 0,
      "byteOffset": 97344,
      "byteLength": 1944,
      "target": 34962,
      "byteStride": 12
    },
    {
      "buffer": 0,
      "byteOffset": 99288,
      "byteLength": 1944,
      "target": 34962,
      "byteStride": 12
    },
    {
      "buffer": 0,
      "byteOffset": 101232,
      "byteLength": 1296,
      "target": 34962,
      "byteStride": 8
    },
    {
      "buffer": 0,
      "byteOffset": 102528,
      "byteLength": 1920,
      "target": 34963
    },
    {
      "buffer": 0,
      "byteOffset": 104448,
      "byteLength": 15936,
      "target": 34962,
      "byteStride": 12
    },
    {
      "buffer": 0,
      "byteOffset": 120384,
      "byteLength": 15936,
      "target": 34962,
      "byteStride": 12
    },
    {
      "buffer": 0,
      "byteOffset": 136320,
      "byteLength": 10624,
      "target": 34962,
      "byteStride": 8
    },
    {
      "buffer": 0,
      "byteOffset": 146944,
      "byteLength": 15360,
      "target": 34963
    },
    {
      "buffer": 0,
      "byteOffset": 162304,
      "byteLength": 13416,
      "target": 34962,
      "byteStride": 12
    },
    {
      "buffer": 0,
      "byteOffset": 175720,
      "byteLength": 13416,
      "target": 34962,
      "byteStride": 12
    },
    {
      "buffer": 0,
      "byteOffset": 189136,
      "byteLength": 8944,
      "target": 34962,
      "byteStride": 8
    },
    {
      "buffer": 0,
      "byteOffset": 198080,
      "byteLength": 11520,
      "target": 34963
    },
    {
      "buffer": 0,
      "byteOffset": 209600,
      "byteLength": 165888,
      "target": 34962,
      "byteStride": 12
    },
    {
      "buffer": 0,
      "byteOffset": 375488,
      "byteLength": 165888,
      "target": 34962,
      "byteStride": 12
    },
    {
      "buffer": 0,
      "byteOffset": 541376,
      "byteLength": 82944,
      "target": 34963
    },
    {
      "buffer": 0,
      "byteOffset": 624320,
      "byteLength": 67584,
      "target": 34962,
      "byteStride": 12
    },
    {
      "buffer": 0,
      "byteOffset": 691904,
      "byteLength": 67584,
      "target": 34962,
      "byteStride": 12
    },
    {
      "buffer": 0,
      "byteOffset": 759488,
      "byteLength": 33792,
      "target": 34963
    }
  ],
  "buffers": [
    {
      "byteLength": 793280,
      "uri": "data:application/octet-stream;base64,"
    }
  ],
  "accessors": [
    {
      "bufferView": 0,
      "componentType": 5126,
      "count": 2100,
      "max": [
        0.29057440161705017,
        0.3969358801841736,
        0.20899856090545654
      ],
      "min": [
        -0.3086227476596832,
        -0.11987395584583282,
        -0.20899856090545654
      ],
      "type": "VEC3"
    },
    {
      "bufferView": 1,
      "componentType": 5126,
      "count": 2100,
      "max": [
        0.9999819993972778,
        0.9999998807907104,
        0.9995376467704773
      ],
      "min": [
        -0.9999672174453735,
        -0.9997667670249939,
        -0.9995376467704773
      ],
      "type": "VEC3"
    },
    {
      "bufferView": 2,
      "componentType": 5126,
      "count": 2100,
      "max": [
        0.8750001192092896,
        1
      ],
      "min": [
        0.125,
        -1.1920928955078125e-7
      ],
      "type": "VEC2"
    },
    {
      "bufferView": 3,
      "componentType": 5123,
      "count": 11520,
      "max": [
        2099
      ],
      "min": [
        0
      ],
      "type": "SCALAR"
    },
    {
      "bufferView": 4,
      "componentType": 5126,
      "count": 162,
      "max": [
        0.31402894854545593,
        0.282409131526947,
        0.05954941362142563
      ],
      "min": [
        0.19180932641029358,
        0.23588019609451294,
        -0.05954941362142563
      ],
      "type": "VEC3"
    },
    {
      "bufferView": 5,
      "componentType": 5126,
      "count": 162,
      "max": [
        0.9661418795585632,
        0.9980947375297546,
        0.9108194708824158
      ],
      "min": [
        -0.9098177552223206,
        -0.9981683492660522,
        -0.9108194708824158
      ],
      "type": "VEC3"
    },
    {
      "bufferView": 6,
      "componentType": 5126,
      "count": 162,
      "max": [
        1.0000001192092896,
        1
      ],
      "min": [
        0,
        -1.1920928955078125e-7
      ],
      "type": "VEC2"
    },
    {
      "bufferView": 7,
      "componentType": 5123,
      "count": 960,
      "max": [
        161
      ],
      "min": [
        0
      ],
      "type": "SCALAR"
    },
    {
      "bufferView": 8,
      "componentType": 5126,
      "count": 162,
      "max": [
        0.30533698201179504,
        0.25050145387649536,
        0.05159572511911392
      ],
      "min": [
        0.19639474153518677,
        0.2115342617034912,
        -0.05159572511911392
      ],
      "type": "VEC3"
    },
    {
      "bufferView": 9,
      "componentType": 5126,
      "count": 162,
      "max": [
        0.9302657246589661,
        0.9999995231628418,
        0.8478866219520569
      ],
      "min": [
        -0.8445250988006592,
        -0.9999991655349731,
        -0.8478866219520569
      ],
      "type": "VEC3"
    },
    {
      "bufferView": 10,
      "componentType": 5126,
      "count": 162,
      "max": [
        1.0000001192092896,
        1
      ],
      "min": [
        0,
        -1.1920928955078125e-7
      ],
      "type": "VEC2"
    },
    {
      "bufferView": 11,
      "componentType": 5123,
      "count": 960,
      "max": [
        161
      ],
      "min": [
        0
      ],
      "type": "SCALAR"
    },
    {
      "bufferView": 12,
      "componentType": 5126,
      "count": 1328,
      "max": [
        0.12972503900527954,
        0.10701988637447357,
        0.22125069797039032
      ],
      "min": [
        -0.11589774489402771,
        -0.04348684474825859,
        -0.22125069797039032
      ],
      "type": "VEC3"
    },
    {
      "bufferView": 13,
      "componentType": 5126,
      "count": 1328,
      "max": [
        0.9985030889511108,
        0.9993894100189209,
        0.9999982118606567
      ],
      "min": [
        -0.9913170337677002,
        -0.9990643262863159,
        -0.9999982118606567
      ],
      "type": "VEC3"
    },
    {
      "bufferView": 14,
      "componentType": 5126,
      "count": 1328,
      "max": [
        0.6250000596046448,
        0.75
      ],
      "min": [
        0.375,
        0.4999999403953552
      ],
      "type": "VEC2"
    },
    {
      "bufferView": 15,
      "componentType": 5123,
      "count": 7680,
      "max": [
        1327
      ],
      "min": [
        0
      ],
      "type": "SCALAR"
    },
    {
      "bufferView": 16,
      "componentType": 5126,
      "count": 1118,
      "max": [
        0.2393191158771515,
        0.30833736062049866,
        0.0645633190870285
      ],
      "min": [
        0.21142655611038208,
        0.271913081407547,
        -0.0645633190870285
      ],
      "type": "VEC3"
    },
    {
      "bufferView": 17,
      "componentType": 5126,
      "count": 1118,
      "max": [
        0.9997167587280273,
        0.9999991655349731,
        1
      ],
      "min": [
        -0.9997167587280273,
        -0.9999991655349731,
        -1
      ],
      "type": "VEC3"
    },
    {
      "bufferView": 18,
      "componentType": 5126,
      "count": 1118,
      "max": [
        1,
        0.9999999403953552
      ],
      "min": [
        0,
        0
      ],
      "type": "VEC2"
    },
    {
      "bufferView": 19,
      "componentType": 5123,
      "count": 5760,
      "max": [
        1117
      ],
      "min": [
        0
      ],
      "type": "SCALAR"
    },
    {
      "bufferView": 20,
      "componentType": 5126,
      "count": 13824,
      "max": [
        219.86068725585938,
        137.42050170898438,
        215.83636474609375
      ],
      "min": [
        -219.86068725585938,
        -88.04969787597656,
        -223.77163696289062
      ],
      "type": "VEC3"
    },
    {
      "bufferView": 21,
      "componentType": 5126,
      "count": 13824,
      "max": [
        0.9929771423339844,
        1,
        0.9994068741798401
      ],
      "min": [
        -0.9929772615432739,
        -0.9999744892120361,
        -0.9826933741569519
      ],
      "type": "VEC3"
    },
    {
      "bufferView": 22,
      "componentType": 5125,
      "count": 20736,
      "max": [
        13823
      ],
      "min": [
        0
      ],
      "type": "SCALAR"
    },
    {
      "bufferView": 23,
      "componentType": 5126,
      "count": 5632,
      "max": [
        88.83833312988281,
        6.5,
        88.83833312988281
      ],
      "min": [
        -88.83833312988281,
        -6.5,
        -88.83833312988281
      ],
      "type": "VEC3"
    },
    {
      "bufferView": 24,
      "componentType": 5126,
      "count": 5632,
      "max": [
        0.9973580837249756,
        1,
        0.9973580837249756
      ],
      "min": [
        -0.9973580837249756,
        -1,
        -0.9973580837249756
      ],
      "type": "VEC3"
    },
    {
      "bufferView": 25,
      "componentType": 5125,
      "count": 8448,
      "max": [
        5631
      ],
      "min": [
        0
      ],
      "type": "SCALAR"
    }
  ],
  "meshes": [
    {
      "primitives": [
        {
          "mode": 4,
          "attributes": {
            "POSITION": 0,
            "NORMAL": 1,
            "TEXCOORD_0": 2
          },
          "extras": {
            "parameters": {
              "width": 0.5991971492767334,
              "height": 0.5168098360300064,
              "depth": 0.4179971218109131,
              "subdivisions": 0
            },
            "type": "NonParametricGeometry"
          },
          "indices": 3
        }
      ]
    },
    {
      "primitives": [
        {
          "mode": 4,
          "attributes": {
            "POSITION": 4,
            "NORMAL": 5,
            "TEXCOORD_0": 6
          },
          "extras": {
            "parameters": {
              "width": 0.12221962213516235,
              "height": 0.04652893543243408,
              "depth": 0.11909882724285126,
              "subdivisions": 0
            },
            "type": "NonParametricGeometry"
          },
          "indices": 7
        }
      ]
    },
    {
      "primitives": [
        {
          "mode": 4,
          "attributes": {
            "POSITION": 8,
            "NORMAL": 9,
            "TEXCOORD_0": 10
          },
          "extras": {
            "parameters": {
              "width": 0.10894224047660828,
              "height": 0.03896719217300415,
              "depth": 0.10319145023822784,
              "subdivisions": 0
            },
            "type": "NonParametricGeometry"
          },
          "indices": 11
        }
      ]
    },
    {
      "primitives": [
        {
          "mode": 4,
          "attributes": {
            "POSITION": 12,
            "NORMAL": 13,
            "TEXCOORD_0": 14
          },
          "extras": {
            "parameters": {
              "width": 0.24562278389930725,
              "height": 0.15050673112273216,
              "depth": 0.44250139594078064,
              "subdivisions": 0
            },
            "type": "NonParametricGeometry"
          },
          "indices": 15
        }
      ]
    },
    {
      "primitives": [
        {
          "mode": 4,
          "attributes": {
            "POSITION": 16,
            "NORMAL": 17,
            "TEXCOORD_0": 18
          },
          "extras": {
            "parameters": {
              "width": 0.02789255976676941,
              "height": 0.03642427921295166,
              "depth": 0.129126638174057,
              "subdivisions": 0
            },
            "type": "NonParametricGeometry"
          },
          "indices": 19
        }
      ]
    },
    {
      "primitives": [
        {
          "mode": 4,
          "attributes": {
            "POSITION": 20,
            "NORMAL": 21
          },
          "extras": {
            "type": "SubdivGeometry",
            "parameters": {
              "width": 451.66259765625,
              "height": 226.27615356445312,
              "depth": 451.77772521972656
            }
          },
          "indices": 22
        }
      ]
    },
    {
      "primitives": [
        {
          "mode": 4,
          "attributes": {
            "POSITION": 23,
            "NORMAL": 24
          },
          "extras": {
            "type": "SubdivGeometry",
            "parameters": {
              "width": 185.01319885253906,
              "height": 13,
              "depth": 185.01319885253906
            }
          },
          "indices": 25
        }
      ]
    }
  ],
  "extensions": {
    "KHR_lights_punctual": {
      "lights": [
        {
          "name": "Directional Light",
          "color": [
            1,
            1,
            1
          ],
          "intensity": 0.7,
          "type": "directional"
        }
      ]
    }
  },
  "cameras": [
    {
      "type": "orthographic",
      "orthographic": {
        "xmag": 3.168912014292712,
        "ymag": 1.8903440418593331,
        "zfar": 100000,
        "znear": 0
      }
    }
  ],
  "extensionsUsed": [
    "KHR_lights_punctual"
  ]
}