<svg width="37" height="32" viewBox="0 0 37 32" fill="none" xmlns="http://www.w3.org/2000/svg">
<path d="M33.9829 24.7556V24.7537" stroke="black" stroke-width="2"/>
<path d="M20.4658 1C24.5773 1.0002 28.0956 3.60618 29.2168 7.24219L33.0088 7.71777H33.0117L33.0732 7.72559C34.888 7.95306 35.7124 10.1987 34.2773 11.4414L34.1309 11.5586C32.7846 12.5572 30.8148 13.7804 28.6777 14.2568C30.3671 15.6379 31.5441 17.6151 31.8096 19.9111C31.8195 19.9915 31.8268 20.0685 31.833 20.1328L31.8379 20.1807V20.2021L31.8525 20.3965V20.4082C31.8564 20.4884 31.8596 20.5663 31.8623 20.6387L31.8633 20.6562V20.6777H31.8623C31.8898 21.8338 31.6774 22.9512 31.2637 23.9795L31.2588 23.9902L31.2148 24.0957L31.2119 24.1035C30.7301 25.2314 29.9995 26.2527 29.0693 27.1387L29.0176 27.1885L29.0078 27.1943C25.3502 30.626 18.6642 32.0628 11.0557 30.1357C6.4853 28.978 3.90026 26.3951 2.50684 23.5781C1.13534 20.8054 0.948208 17.8714 1.01074 15.9785V15.9775C1.06891 14.2446 2.99883 13.4141 4.36328 14.2148C8.32378 16.5402 11.6817 15.9098 13.4414 15.2627C12.1348 13.7602 11.3398 11.8264 11.3398 9.70703C11.34 4.84872 15.4759 1 20.4658 1Z" fill="white" stroke="#0085FF" stroke-width="2"/>
</svg>
