<svg width="17" height="22" viewBox="0 0 17 22" fill="none" xmlns="http://www.w3.org/2000/svg">
<path fill-rule="evenodd" clip-rule="evenodd" d="M2.68182 9.3333C1.70406 9.3333 1.5 9.5252 1.5 10.4444V12.1111C1.5 13.0304 1.70406 13.2222 2.68182 13.2222H5.04545V19.8889C5.04545 20.8081 5.24951 21 6.22727 21H8.5909C9.5687 21 9.7727 20.8081 9.7727 19.8889V13.2222H12.4267C13.1683 13.2222 13.3594 13.0867 13.5631 12.4164L14.0696 10.7497C14.4185 9.6014 14.2035 9.3333 12.9332 9.3333H9.7727V6.55556C9.7727 5.94191 10.3018 5.44444 10.9545 5.44444H14.3182C15.2959 5.44444 15.5 5.25259 15.5 4.33333V2.11111C15.5 1.19185 15.2959 1 14.3182 1H10.9545C7.691 1 5.04545 3.48731 5.04545 6.55556V9.3333H2.68182Z" stroke="#FEFEFE" stroke-width="1.5" stroke-linejoin="round"/>
</svg>
