<svg width="25" height="24" viewBox="0 0 25 24" fill="none" xmlns="http://www.w3.org/2000/svg">
<path d="M7.5 10V17" stroke="#FEFEFE" stroke-width="1.5" stroke-linecap="round" stroke-linejoin="round"/>
<path d="M11.5 13V17M11.5 13C11.5 11.3431 12.8431 10 14.5 10C16.1569 10 17.5 11.3431 17.5 13V17M11.5 13V10" stroke="#FEFEFE" stroke-width="1.5" stroke-linecap="round" stroke-linejoin="round"/>
<path d="M7.50801 7H7.49902" stroke="#FEFEFE" stroke-width="2" stroke-linecap="round" stroke-linejoin="round"/>
<path d="M3 12C3 7.52166 3 5.28249 4.39124 3.89124C5.78249 2.5 8.02166 2.5 12.5 2.5C16.9783 2.5 19.2175 2.5 20.6088 3.89124C22 5.28249 22 7.52166 22 12C22 16.4783 22 18.7175 20.6088 20.1088C19.2175 21.5 16.9783 21.5 12.5 21.5C8.02166 21.5 5.78249 21.5 4.39124 20.1088C3 18.7175 3 16.4783 3 12Z" stroke="#FEFEFE" stroke-width="1.5" stroke-linejoin="round"/>
</svg>
